<svg version="1.1" xmlns="http://www.w3.org/2000/svg" xmlns:xlink="http://www.w3.org/1999/xlink" width="81" height="82"><defs/><g><path fill="rgb(245,197,6)" stroke="none" paint-order="stroke fill markers" fill-rule="evenodd" d=" M 1.1738576292991638 22.286585927009583 C 1.1738576292991638 22.286585927009583 19.954383075237274 21.57353323698044 19.954383075237274 21.57353323698044 C 19.954383075237274 21.57353323698044 19.82862561941147 2.7792298793792725 19.82862561941147 2.7792298793792725 C 19.82862561941147 2.7792298793792725 27.847498834133148 10.447639524936676 27.847498834133148 10.447639524936676 C 27.847498834133148 10.447639524936676 27.973800480365753 29.242496967315674 27.973800480365753 29.242496967315674 C 27.973800480365753 29.242496967315674 9.19273579120636 29.954891681671143 9.19273579120636 29.954891681671143 C 9.19273579120636 29.954891681671143 1.1738576292991638 22.286585927009583 1.1738576292991638 22.286585927009583 Z M 13.344047784805298 33.92483985424042 C 13.344047784805298 33.92483985424042 32.12449407577515 33.21178716421127 32.12449407577515 33.21178716421127 C 32.12449407577515 33.21178716421127 31.998815774917603 14.417587697505951 31.998815774917603 14.417587697505951 C 31.998815774917603 14.417587697505951 40.01760983467102 22.08589345216751 40.01760983467102 22.08589345216751 C 40.01760983467102 22.08589345216751 40.14399063587189 40.88075089454651 40.14399063587189 40.88075089454651 C 40.14399063587189 40.88075089454651 21.362846791744232 41.59314066171646 21.362846791744232 41.59314066171646 C 21.362846791744232 41.59314066171646 13.344047784805298 33.92483985424042 13.344047784805298 33.92483985424042 Z M 61.171300172805786 79.66185688972473 C 61.171300172805786 79.66185688972473 61.04491937160492 60.8683203458786 61.04491937160492 60.8683203458786 C 61.04491937160492 60.8683203458786 79.82606321573257 60.15460968017578 79.82606321573257 60.15460968017578 C 79.82606321573257 60.15460968017578 71.8071900010109 52.48619508743286 71.8071900010109 52.48619508743286 C 71.8071900010109 52.48619508743286 53.02542281150818 53.199247777462006 53.02542281150818 53.199247777462006 C 53.02542281150818 53.199247777462006 53.15242201089859 71.99355113506317 53.15242201089859 71.99355113506317 C 53.15242201089859 71.99355113506317 61.171300172805786 79.66185688972473 61.171300172805786 79.66185688972473 Z M 49.00111001729965 68.0236029624939 C 49.00111001729965 68.0236029624939 48.87480837106705 49.23007136583328 48.87480837106705 49.23007136583328 C 48.87480837106705 49.23007136583328 67.65587306022644 48.516355752944946 67.65587306022644 48.516355752944946 C 67.65587306022644 48.516355752944946 59.637074053287506 40.847941160202026 59.637074053287506 40.847941160202026 C 59.637074053287506 40.847941160202026 40.855311810970306 41.56110268831253 40.855311810970306 41.56110268831253 C 40.855311810970306 41.56110268831253 40.98231101036072 60.35519331693649 40.98231101036072 60.35519331693649 C 40.98231101036072 60.35519331693649 49.00111001729965 68.0236029624939 49.00111001729965 68.0236029624939 Z M 59.43398714065552 1.8945444822311401 C 59.43398714065552 1.8945444822311401 60.147010147571564 20.674980878829956 60.147010147571564 20.674980878829956 C 60.147010147571564 20.674980878829956 78.94124919176102 20.549258053302765 78.94124919176102 20.549258053302765 C 78.94124919176102 20.549258053302765 71.27292364835739 28.568086743354797 71.27292364835739 28.568086743354797 C 71.27292364835739 28.568086743354797 52.47798705101013 28.69447249174118 52.47798705101013 28.69447249174118 C 52.47798705101013 28.69447249174118 51.765577495098114 9.913378119468689 51.765577495098114 9.913378119468689 C 51.765577495098114 9.913378119468689 59.43398714065552 1.8945444822311401 59.43398714065552 1.8945444822311401 Z M 47.7957381606102 14.064531803131104 C 47.7957381606102 14.064531803131104 48.508761167526245 32.84518587589264 48.508761167526245 32.84518587589264 C 48.508761167526245 32.84518587589264 67.3030002117157 32.71946305036545 67.3030002117157 32.71946305036545 C 67.3030002117157 32.71946305036545 59.63459551334381 40.73829174041748 59.63459551334381 40.73829174041748 C 59.63459551334381 40.73829174041748 40.83973807096481 40.864568650722504 40.83973807096481 40.864568650722504 C 40.83973807096481 40.864568650722504 40.12733346223831 22.083360493183136 40.12733346223831 22.083360493183136 C 40.12733346223831 22.083360493183136 47.7957381606102 14.064531803131104 47.7957381606102 14.064531803131104 Z M 2.0586716532707214 61.89182376861572 C 2.0586716532707214 61.89182376861572 20.852213144302368 61.765551805496216 20.852213144302368 61.765551805496216 C 20.852213144302368 61.765551805496216 21.565938651561737 80.54664617776871 21.565938651561737 80.54664617776871 C 21.565938651561737 80.54664617776871 29.234343349933624 72.52781748771667 29.234343349933624 72.52781748771667 C 29.234343349933624 72.52781748771667 28.521241188049316 53.74606019258499 28.521241188049316 53.74606019258499 C 28.521241188049316 53.74606019258499 9.727002143859863 53.87299507856369 9.727002143859863 53.87299507856369 C 9.727002143859863 53.87299507856369 2.0586716532707214 61.89182376861572 2.0586716532707214 61.89182376861572 Z M 13.69692063331604 49.721732556819916 C 13.69692063331604 49.721732556819916 32.49046212434769 49.59534680843353 32.49046212434769 49.59534680843353 C 32.49046212434769 49.59534680843353 33.204187631607056 68.3765549659729 33.204187631607056 68.3765549659729 C 33.204187631607056 68.3765549659729 40.87259232997894 60.35772627592087 40.87259232997894 60.35772627592087 C 40.87259232997894 60.35772627592087 40.159490168094635 41.57585519552231 40.159490168094635 41.57585519552231 C 40.159490168094635 41.57585519552231 21.365251123905182 41.70289891958237 21.365251123905182 41.70289891958237 C 21.365251123905182 41.70289891958237 13.69692063331604 49.721732556819916 13.69692063331604 49.721732556819916 Z"/></g></svg>