<?xml version="1.0" standalone="no"?>
<!DOCTYPE svg PUBLIC "-//W3C//DTD SVG 20010904//EN"
 "http://www.w3.org/TR/2001/REC-SVG-20010904/DTD/svg10.dtd">
<svg version="1.0" xmlns="http://www.w3.org/2000/svg"
 width="512.000000pt" height="512.000000pt" viewBox="0 0 512.000000 512.000000"
 preserveAspectRatio="xMidYMid meet">
<metadata>
Created by potrace 1.15, written by Peter Selinger 2001-2017
</metadata>
<g transform="translate(0.000000,512.000000) scale(0.100000,-0.100000)"
fill="#000000" stroke="none">
<path d="M203 4958 c-174 -172 -196 -198 -191 -231 3 -19 32 5 192 163 103
102 192 193 197 203 8 14 5 17 -17 17 -21 0 -60 -33 -181 -152z"/>
<path d="M303 4858 c-140 -139 -264 -265 -275 -281 -10 -15 -18 -37 -16 -50 3
-18 49 23 292 263 158 157 292 293 297 303 8 14 5 17 -17 17 -22 0 -75 -47
-281 -252z"/>
<path d="M402 4758 c-194 -194 -362 -365 -373 -381 -11 -15 -19 -37 -17 -50 4
-18 67 40 392 363 213 212 392 393 397 403 8 14 5 17 -18 17 -22 0 -89 -62
-381 -352z"/>
<path d="M502 4658 c-249 -249 -462 -465 -473 -481 -11 -15 -19 -37 -17 -50 4
-18 84 57 492 463 268 267 492 493 497 503 8 14 5 17 -18 17 -22 0 -104 -76
-481 -452z"/>
<path d="M602 4558 c-304 -304 -562 -565 -573 -581 -11 -15 -19 -37 -17 -50 4
-18 101 75 592 563 323 322 592 593 597 603 8 14 5 17 -18 17 -23 0 -118 -91
-581 -552z"/>
<path d="M702 4458 c-359 -359 -662 -665 -673 -681 -11 -15 -19 -37 -17 -50 4
-18 118 92 692 663 378 377 692 693 697 703 8 14 5 17 -18 17 -23 0 -133 -106
-681 -652z"/>
<path d="M802 4358 c-414 -414 -762 -765 -773 -781 -11 -15 -19 -37 -17 -50 4
-18 136 109 792 763 433 432 792 793 797 803 8 14 5 17 -18 17 -23 0 -148
-120 -781 -752z"/>
<path d="M902 4258 c-469 -469 -862 -865 -873 -881 -11 -15 -19 -37 -17 -50 4
-18 153 126 892 863 488 487 892 893 897 903 8 14 5 17 -18 17 -23 0 -162
-135 -881 -852z"/>
<path d="M1002 4158 c-524 -524 -962 -965 -973 -981 -11 -15 -19 -37 -17 -50
4 -18 170 144 992 963 543 542 992 993 997 1003 8 14 5 17 -18 17 -23 0 -177
-149 -981 -952z"/>
<path d="M1102 4058 c-579 -579 -1062 -1065 -1073 -1081 -11 -15 -19 -37 -17
-50 4 -18 188 161 1092 1063 598 597 1092 1093 1097 1103 8 14 5 17 -18 17
-23 0 -191 -164 -1081 -1052z"/>
<path d="M1202 3958 c-634 -634 -1162 -1165 -1173 -1181 -11 -15 -19 -37 -17
-50 4 -18 151 125 882 853 520 518 875 865 871 850 -4 -14 -8 -38 -10 -55 -1
-16 -3 -39 -3 -50 -1 -11 -356 -374 -872 -890 -727 -727 -870 -875 -870 -898
0 -15 3 -27 7 -27 4 0 391 384 860 852 l853 853 0 -65 0 -65 -860 -860 c-719
-720 -860 -865 -860 -888 0 -15 3 -27 7 -27 4 0 394 386 865 857 l858 858 0
-65 0 -65 -865 -865 c-723 -724 -865 -870 -865 -893 0 -15 3 -27 7 -27 4 0
393 385 864 856 l857 857 -5 -69 -5 -69 -859 -860 c-718 -719 -859 -865 -859
-888 0 -15 3 -27 7 -27 4 0 391 384 860 852 l853 853 0 -65 0 -65 -860 -860
c-719 -720 -860 -865 -860 -888 0 -15 3 -27 7 -27 4 0 391 384 860 852 l853
853 0 -65 0 -65 -860 -860 c-719 -720 -860 -865 -860 -888 0 -15 3 -27 7 -27
4 0 391 384 860 852 l853 853 0 -65 0 -65 -860 -860 c-719 -720 -860 -865
-860 -888 0 -15 3 -27 7 -27 4 0 391 384 860 852 l853 853 0 -65 0 -65 -860
-860 c-719 -720 -860 -865 -860 -888 0 -15 3 -27 7 -27 4 0 391 384 860 852
l853 853 0 -65 0 -65 -172 -172 c-136 -134 -179 -172 -203 -175 -25 -2 -31 -9
-40 -41 -9 -30 -126 -152 -658 -685 -538 -539 -647 -652 -647 -675 0 -15 3
-27 7 -27 4 0 299 291 654 646 l647 647 0 -64 0 -64 -654 -655 c-544 -546
-654 -660 -654 -683 0 -15 3 -27 7 -27 4 0 298 290 653 645 l645 645 39 -26
38 -26 -691 -692 c-576 -576 -691 -696 -691 -719 0 -15 3 -27 7 -27 4 0 324
316 710 702 l703 703 32 -33 33 -32 -743 -743 c-619 -619 -742 -747 -742 -770
0 -15 3 -27 7 -27 4 0 345 338 758 750 l751 751 20 -23 c12 -13 25 -29 29 -37
5 -9 -223 -244 -779 -800 -656 -657 -786 -791 -786 -814 0 -15 3 -27 7 -27 4
0 366 358 804 796 l796 795 28 -36 28 -37 -807 -807 c-443 -443 -806 -810
-806 -814 0 -4 12 -7 27 -7 23 0 159 131 823 795 l796 796 27 -38 27 -38 -750
-750 c-412 -413 -750 -754 -750 -758 0 -4 12 -7 27 -7 23 0 150 122 766 738
l738 737 30 -35 29 -35 -695 -695 c-382 -382 -695 -699 -695 -703 0 -4 12 -7
27 -7 23 0 142 114 711 683 l683 682 29 -35 29 -35 -639 -640 c-352 -352 -640
-644 -640 -648 0 -4 12 -7 27 -7 23 0 133 106 656 627 l628 628 30 -35 29 -35
-585 -585 c-322 -322 -585 -589 -585 -593 0 -4 12 -7 27 -7 23 0 125 98 603
574 l575 574 29 -35 29 -34 -531 -532 c-293 -293 -532 -536 -532 -540 0 -4 12
-7 27 -7 23 0 117 90 550 522 l523 522 29 -34 30 -35 -480 -480 c-263 -264
-479 -484 -479 -488 0 -4 12 -7 27 -7 22 0 109 82 498 470 l470 470 29 -36 29
-36 -427 -427 c-234 -235 -426 -430 -426 -434 0 -4 12 -7 27 -7 22 0 101 74
443 415 l416 415 32 -33 32 -33 -366 -364 c-201 -201 -370 -373 -375 -382 -8
-15 -5 -18 18 -18 22 0 90 63 390 362 l363 362 32 -32 33 -32 -323 -323 c-177
-177 -322 -326 -322 -330 0 -4 12 -7 27 -7 22 0 84 58 338 310 171 170 316
310 322 310 6 0 16 -7 23 -15 7 -8 24 -15 38 -15 23 0 -18 -45 -261 -288 -158
-158 -287 -291 -287 -295 0 -4 12 -7 27 -7 23 0 263 235 1511 1483 816 815
1492 1494 1503 1510 11 15 19 37 17 50 -4 18 -210 -183 -1222 -1193 -1239
-1235 -1252 -1247 -1037 -970 178 230 328 394 652 713 189 187 347 342 350
345 3 4 288 291 632 637 520 523 627 635 627 658 0 15 -3 27 -7 27 -4 0 -280
-272 -613 -605 l-606 -606 -26 38 -25 38 638 640 c535 537 639 645 639 668 0
23 -3 26 -17 18 -10 -5 -304 -296 -653 -645 -609 -610 -635 -635 -653 -618
-52 47 -90 4 642 736 567 568 681 686 681 709 0 15 -3 27 -7 27 -4 0 -319
-312 -700 -692 l-693 -693 -32 33 -33 32 733 733 c615 616 732 737 732 760 0
23 -3 26 -17 18 -10 -5 -353 -345 -763 -755 l-745 -746 -65 0 -65 0 828 828
c691 692 827 832 827 855 0 15 -3 27 -7 27 -4 0 -393 -384 -863 -854 -812
-811 -857 -855 -897 -861 -42 -7 -43 -6 -43 21 0 25 132 161 905 934 757 758
905 910 905 933 0 15 -3 27 -7 27 -4 0 -412 -404 -905 -897 l-898 -898 0 65 0
65 905 905 c757 758 905 910 905 933 0 15 -3 27 -7 27 -4 0 -412 -404 -905
-897 l-898 -898 0 65 0 65 905 905 c757 758 905 910 905 933 0 15 -3 27 -7 27
-4 0 -412 -404 -905 -897 l-898 -898 0 65 0 65 905 905 c757 758 905 910 905
933 0 15 -3 27 -7 27 -4 0 -414 -406 -910 -902 l-903 -903 0 65 0 65 910 910
c762 762 910 915 910 938 0 15 -3 27 -7 27 -4 0 -414 -406 -910 -902 l-903
-903 0 65 0 65 846 845 c465 465 850 853 855 863 8 14 5 17 -18 17 -23 0 -158
-131 -855 -827 l-828 -828 0 65 0 65 746 745 c410 410 750 753 755 763 8 14 5
17 -18 17 -23 0 -144 -116 -755 -727 l-728 -728 0 65 0 65 646 645 c355 355
650 653 655 663 8 14 5 17 -18 17 -23 0 -129 -102 -655 -627 l-628 -628 0 65
0 65 546 545 c300 300 550 553 555 563 8 14 5 17 -18 17 -23 0 -114 -87 -555
-527 l-528 -528 0 65 0 65 446 445 c245 245 450 453 455 463 8 14 5 17 -18 17
-22 0 -101 -73 -460 -432 -349 -348 -436 -430 -444 -418 -5 8 -16 27 -24 41
-14 25 -11 28 361 400 207 206 380 382 385 392 8 14 5 17 -18 17 -22 0 -92
-65 -400 -372 -355 -355 -373 -371 -388 -353 -44 57 -62 33 289 384 179 180
326 330 326 334 0 4 -12 7 -27 7 -22 0 -84 -58 -338 -310 l-310 -310 -40 11
c-22 6 -44 13 -49 16 -4 3 121 134 278 292 157 158 286 290 286 294 0 4 -12 7
-27 7 -22 0 -82 -55 -323 -295 l-296 -295 -57 0 c-31 0 -57 3 -57 8 0 4 122
129 271 277 148 149 275 278 280 288 8 14 5 17 -17 17 -23 0 -81 -53 -319
-290 -269 -269 -293 -290 -325 -290 -97 1 -104 -9 194 289 152 152 276 280
276 284 0 4 -12 7 -27 7 -21 0 -81 -54 -313 -285 l-286 -285 -64 0 -65 0 278
278 c152 153 277 281 277 285 0 4 -12 7 -27 7 -21 0 -81 -54 -315 -287 l-288
-287 -67 -4 -68 -4 283 284 c155 156 282 287 282 291 0 4 -12 7 -27 7 -22 0
-82 -55 -322 -294 l-296 -294 -70 -6 -69 -6 292 293 c161 161 292 296 292 300
0 4 -12 7 -27 7 -22 0 -84 -57 -332 -304 l-306 -304 -55 -7 c-30 -3 -64 -9
-75 -12 -11 -3 118 134 288 304 169 170 307 312 307 316 0 4 -12 7 -27 7 -23
0 -213 -185 -1181 -1152z m1168 167 c-54 -54 -58 -56 -123 -62 -79 -7 -90 -23
-15 -23 l52 0 -69 -70 -70 -71 -5 58 -5 58 -9 -71 c-8 -69 -9 -73 -62 -125
l-54 -53 0 64 0 65 142 142 143 143 65 0 65 0 -55 -55z m-255 -55 l-100 -101
-3 62 c-3 60 -2 63 35 101 35 36 40 38 102 38 l66 0 -100 -100z m925 15 c0 -3
-21 -45 -46 -93 -44 -83 -66 -106 -438 -479 -415 -417 -404 -408 -405 -318 -1
39 4 45 220 260 176 175 217 211 200 178 -22 -45 -27 -73 -12 -73 5 0 36 48
70 108 44 79 80 126 134 181 l75 73 -29 -58 c-16 -33 -29 -65 -29 -72 0 -34
29 3 81 102 57 110 129 196 161 196 10 0 18 -2 18 -5z m-610 -300 l-285 -285
-3 62 -3 62 217 217 c226 226 224 224 314 228 l45 1 -285 -285z m343 248 c-71
-171 -81 -184 -356 -460 -144 -145 -265 -263 -269 -263 -5 0 -8 26 -8 57 l0
58 322 322 c178 178 324 323 325 323 1 0 -5 -17 -14 -37z m-448 -153 l-180
-180 -3 62 -3 62 112 112 c111 111 114 113 163 117 28 2 60 4 71 5 13 1 -45
-63 -160 -178z m620 -179 l-127 -126 62 125 c49 99 75 138 123 188 l62 63 3
-63 3 -62 -126 -125z m-90 -290 l-216 -216 56 120 56 120 157 158 157 157 3
-62 3 -62 -216 -215z m-12 292 c-8 -21 -35 -76 -58 -123 -41 -80 -59 -101
-328 -369 l-284 -283 -6 58 -5 59 346 348 c191 191 348 347 349 347 1 0 -5
-17 -14 -37z m-305 -810 l-533 -533 -3 62 -3 62 533 533 533 533 3 -62 3 -62
-533 -533z m90 355 l-50 -113 -192 -193 -191 -192 -9 56 -9 56 249 249 c137
137 250 249 251 249 1 0 -21 -51 -49 -112z m-100 -565 l-543 -543 3 67 3 68
537 538 537 537 3 -62 3 -62 -543 -543z m-389 442 c1 -25 -11 -42 -64 -95
l-65 -64 0 64 0 64 58 59 57 58 6 -28 c4 -15 7 -42 8 -58z m409 -622 l-534
-534 -72 -7 -72 -8 21 22 c12 13 39 25 64 28 46 7 62 26 45 54 -7 14 87 113
528 555 l537 537 9 -56 9 -56 -535 -535z m620 420 c-50 -51 -53 -53 -60 -31
-18 66 -10 90 50 151 l57 58 3 -62 3 -62 -53 -54z m-1016 42 l3 -56 -72 -72
-73 -71 0 64 0 64 62 63 c34 35 66 63 69 63 4 0 9 -25 11 -55z m883 -174 l-46
-46 26 68 c28 75 28 77 17 77 -4 0 -20 -37 -36 -82 l-29 -83 -521 -523 -521
-522 -29 36 -29 36 604 604 604 604 3 -62 c3 -61 3 -62 -43 -107z m-863 -14
l3 -47 -89 -88 -88 -87 6 70 6 69 72 73 c40 40 75 69 79 65 4 -4 9 -28 11 -55z
m822 -228 c-54 -54 -99 -97 -101 -95 -2 1 11 43 27 92 27 79 37 96 93 152 l62
63 9 -57 9 -56 -99 -99z m177 -23 l-61 -61 0 65 0 64 58 59 57 58 3 -62 3 -63
-60 -60z m-1498 -97 c-57 -56 -59 -57 -128 -63 l-69 -6 124 125 125 125 3 -62
3 -62 -58 -57z m1222 94 c-13 -42 -22 -79 -20 -83 2 -3 -190 -199 -426 -436
l-430 -429 -31 34 -30 34 478 478 c264 264 480 479 481 479 1 0 -9 -35 -22
-77z m-46 -319 c-134 -134 -246 -241 -250 -238 -5 3 -15 -8 -23 -23 -8 -15
-81 -93 -162 -173 -81 -80 -134 -128 -119 -107 15 21 25 41 20 45 -9 9 -50
-40 -80 -98 -13 -25 -46 -67 -73 -94 l-50 -48 -31 33 -30 34 517 518 517 517
3 -62 3 -62 -242 -242z m-89 -288 l-341 -341 35 77 c19 42 44 96 56 120 14 28
121 143 303 326 l282 282 3 -62 3 -62 -341 -340z m11 -190 l-472 -471 36 100
36 100 427 428 427 427 9 -56 9 -56 -472 -472z m-938 284 c20 0 19 -2 -7 -29
-24 -25 -39 -30 -97 -36 -81 -8 -92 -25 -17 -25 l52 0 -54 -55 c-52 -52 -55
-54 -73 -37 -45 41 -43 50 24 118 60 60 95 78 137 67 8 -1 23 -3 35 -3z m1811
2 c3 -5 -259 -272 -582 -595 l-588 -588 -32 34 -32 33 55 54 c46 45 56 51 69
40 17 -14 22 0 6 16 -6 6 12 31 54 73 l63 63 -27 -59 c-38 -81 -44 -103 -28
-103 8 0 24 21 37 48 45 92 154 245 244 339 51 53 184 178 297 278 246 220
317 290 300 300 -8 5 -1 18 21 41 29 30 39 34 85 34 29 0 55 -4 58 -8z m132
-12 c20 0 6 -16 -78 -89 -313 -270 -668 -641 -872 -911 -28 -36 -97 -113 -155
-172 -101 -104 -105 -107 -124 -91 -52 48 -85 10 569 664 368 368 614 607 622
604 8 -3 25 -5 38 -5z m-645 -80 c18 -14 -1 -35 -356 -390 l-375 -375 -32 33
-33 32 385 385 c352 353 385 383 388 358 2 -16 12 -35 23 -43z m144 -40 c-2
-4 -18 -13 -35 -20 -16 -7 -30 -19 -30 -26 0 -8 2 -14 5 -14 12 0 71 33 95 53
14 12 -163 -168 -394 -400 l-419 -421 -30 35 -30 35 387 387 c377 377 388 387
421 383 19 -2 33 -8 30 -12z m-853 -240 c-50 -107 -64 -127 -137 -200 l-82
-81 -28 36 c-25 34 -26 38 -11 53 10 11 16 12 16 4 0 -23 18 -12 24 16 5 16
59 79 139 160 72 72 133 132 134 132 1 0 -24 -54 -55 -120z"/>
<path d="M3696 1450 c-779 -778 -1422 -1423 -1427 -1432 -8 -15 -5 -18 18 -18
23 0 239 212 1411 1383 761 760 1392 1394 1403 1410 11 15 19 37 17 50 -4 18
-245 -218 -1422 -1393z"/>
<path d="M3796 1350 c-724 -723 -1322 -1323 -1327 -1332 -8 -15 -5 -18 18 -18
23 0 225 197 1311 1283 706 705 1292 1294 1303 1310 11 15 19 37 17 50 -4 18
-227 -201 -1322 -1293z"/>
<path d="M3896 1250 c-669 -668 -1222 -1223 -1227 -1232 -8 -15 -5 -18 18 -18
23 0 210 183 1211 1182 651 651 1192 1195 1203 1211 11 15 19 37 17 50 -4 18
-210 -183 -1222 -1193z"/>
<path d="M3996 1150 c-614 -613 -1122 -1123 -1127 -1132 -8 -15 -5 -18 18 -18
23 0 196 168 1111 1082 596 596 1092 1095 1103 1111 11 15 19 37 17 50 -4 18
-193 -166 -1122 -1093z"/>
<path d="M4096 1050 c-559 -558 -1022 -1023 -1027 -1033 -8 -14 -5 -17 18 -17
23 0 181 153 1011 983 541 540 992 994 1003 1010 11 15 19 37 17 50 -4 18
-175 -149 -1022 -993z"/>
<path d="M4196 950 c-504 -503 -922 -923 -927 -932 -8 -15 -5 -18 18 -18 23 0
167 139 911 882 486 486 892 895 903 911 11 15 19 37 17 50 -4 18 -158 -132
-922 -893z"/>
<path d="M4296 850 c-449 -448 -822 -823 -827 -832 -8 -15 -5 -18 18 -18 23 0
152 124 811 783 431 430 792 794 803 810 11 15 19 37 17 50 -4 18 -141 -114
-822 -793z"/>
<path d="M4396 750 c-394 -393 -722 -723 -727 -732 -8 -15 -5 -18 18 -18 23 0
137 110 711 683 376 375 692 694 703 710 11 15 19 37 17 50 -4 18 -124 -97
-722 -693z"/>
<path d="M4496 650 c-339 -338 -622 -623 -627 -632 -8 -15 -5 -18 18 -18 23 0
123 95 611 583 321 320 592 594 603 610 11 15 19 37 17 50 -4 18 -106 -80
-622 -593z"/>
<path d="M4596 550 c-284 -283 -522 -523 -527 -533 -8 -14 -5 -17 18 -17 23 0
108 81 511 483 266 265 492 494 503 510 11 15 19 37 17 50 -4 18 -89 -62 -522
-493z"/>
<path d="M4696 450 c-229 -228 -422 -423 -427 -432 -8 -15 -5 -18 18 -18 22 0
93 66 411 383 211 210 392 394 403 410 11 15 19 37 17 50 -4 18 -72 -45 -422
-393z"/>
<path d="M4796 350 c-174 -173 -322 -323 -327 -332 -8 -15 -5 -18 17 -18 23 0
80 52 312 282 156 156 293 295 303 311 11 15 19 37 17 50 -4 18 -54 -28 -322
-293z"/>
<path d="M4896 250 c-119 -118 -222 -223 -227 -232 -8 -15 -5 -18 17 -18 21 0
65 37 211 183 205 202 226 227 221 260 -3 19 -37 -11 -222 -193z"/>
<path d="M4996 150 c-136 -133 -149 -150 -111 -150 18 0 49 23 111 82 102 98
127 130 122 161 -3 19 -19 7 -122 -93z"/>
</g>
</svg>
