<?xml version="1.0" standalone="no"?>
<!DOCTYPE svg PUBLIC "-//W3C//DTD SVG 20010904//EN"
 "http://www.w3.org/TR/2001/REC-SVG-20010904/DTD/svg10.dtd">
<svg version="1.0" xmlns="http://www.w3.org/2000/svg"
 width="512.000000pt" height="512.000000pt" viewBox="0 0 512.000000 512.000000"
 preserveAspectRatio="xMidYMid meet">
<metadata>
Created by potrace 1.15, written by Peter Selinger 2001-2017
</metadata>
<g transform="translate(0.000000,512.000000) scale(0.100000,-0.100000)"
fill="#000000" stroke="none">
<path d="M203 4958 c-174 -172 -196 -198 -191 -231 3 -19 32 5 192 163 103
102 192 193 197 203 8 14 5 17 -17 17 -21 0 -60 -33 -181 -152z"/>
<path d="M303 4858 c-140 -139 -264 -265 -275 -281 -10 -15 -18 -37 -16 -50 3
-18 49 23 292 263 158 157 292 293 297 303 8 14 5 17 -17 17 -22 0 -75 -47
-281 -252z"/>
<path d="M402 4758 c-194 -194 -362 -365 -373 -381 -11 -15 -19 -37 -17 -50 4
-18 67 40 392 363 213 212 392 393 397 403 8 14 5 17 -18 17 -22 0 -89 -62
-381 -352z"/>
<path d="M502 4658 c-249 -249 -462 -465 -473 -481 -11 -15 -19 -37 -17 -50 4
-18 84 57 492 463 268 267 492 493 497 503 8 14 5 17 -18 17 -22 0 -104 -76
-481 -452z"/>
<path d="M602 4558 c-304 -304 -562 -565 -573 -581 -11 -15 -19 -37 -17 -50 4
-18 101 75 592 563 323 322 592 593 597 603 8 14 5 17 -18 17 -23 0 -118 -91
-581 -552z"/>
<path d="M702 4458 c-359 -359 -662 -665 -673 -681 -11 -15 -19 -37 -17 -50 4
-18 118 92 692 663 378 377 692 693 697 703 8 14 5 17 -18 17 -23 0 -133 -106
-681 -652z"/>
<path d="M802 4358 c-414 -414 -762 -765 -773 -781 -11 -15 -19 -37 -17 -50 4
-18 136 109 792 763 433 432 792 793 797 803 8 14 5 17 -18 17 -23 0 -148
-120 -781 -752z"/>
<path d="M902 4258 c-469 -469 -862 -865 -873 -881 -11 -15 -19 -37 -17 -50 4
-18 153 126 892 863 488 487 892 893 897 903 8 14 5 17 -18 17 -23 0 -162
-135 -881 -852z"/>
<path d="M1002 4158 c-524 -524 -962 -965 -973 -981 -11 -15 -19 -37 -17 -50
4 -18 170 144 992 963 543 542 992 993 997 1003 8 14 5 17 -18 17 -23 0 -177
-149 -981 -952z"/>
<path d="M1102 4058 c-579 -579 -1062 -1065 -1073 -1081 -11 -15 -19 -37 -17
-50 4 -18 188 161 1092 1063 598 597 1092 1093 1097 1103 8 14 5 17 -18 17
-23 0 -191 -164 -1081 -1052z"/>
<path d="M1202 3958 c-634 -634 -1162 -1165 -1173 -1181 -11 -15 -19 -37 -17
-50 4 -18 205 178 1192 1163 653 652 1192 1193 1197 1203 8 14 5 17 -18 17
-23 0 -206 -178 -1181 -1152z"/>
<path d="M1302 3858 c-689 -689 -1262 -1265 -1273 -1281 -11 -15 -19 -37 -17
-50 4 -18 222 195 1292 1263 708 707 1292 1293 1297 1303 8 14 5 17 -18 17
-23 0 -220 -193 -1281 -1252z"/>
<path d="M1402 3758 c-744 -744 -1362 -1365 -1373 -1381 -11 -15 -19 -37 -17
-50 4 -18 239 213 1392 1363 763 762 1392 1393 1397 1403 8 14 5 17 -18 17
-23 0 -235 -207 -1381 -1352z"/>
<path d="M1502 3658 c-799 -799 -1462 -1465 -1473 -1481 -11 -15 -19 -37 -17
-50 4 -18 257 230 1492 1463 818 817 1492 1493 1497 1503 8 14 5 17 -18 17
-23 0 -250 -222 -1481 -1452z"/>
<path d="M2851 4806 c-286 -285 -307 -304 -325 -290 -45 32 -58 21 -197 -166
-51 -69 -119 -159 -152 -200 -33 -41 -534 -550 -1114 -1130 -889 -891 -1053
-1060 -1053 -1083 0 -23 3 -26 18 -18 9 5 278 271 596 589 l579 580 22 -41 21
-42 -618 -620 c-513 -516 -618 -625 -618 -648 0 -15 3 -27 7 -27 4 0 289 282
634 626 l626 626 28 -37 28 -36 -661 -662 c-555 -556 -662 -667 -662 -690 0
-23 3 -26 18 -18 9 5 314 307 677 670 l660 661 32 -32 33 -32 -710 -711 c-596
-597 -710 -715 -710 -738 0 -23 3 -26 18 -18 9 5 341 334 737 730 l720 721 65
0 65 0 -803 -803 c-675 -675 -802 -807 -802 -830 0 -23 3 -26 18 -18 9 5 386
379 837 830 l820 821 52 0 c36 0 53 -4 53 -12 0 -7 -401 -413 -890 -903 -745
-745 -890 -895 -890 -918 0 -15 3 -27 7 -27 4 0 405 397 890 882 l883 883 0
-65 0 -65 -890 -890 c-745 -745 -890 -895 -890 -918 0 -15 3 -27 7 -27 4 0
405 397 890 882 l883 883 0 -65 0 -65 -890 -890 c-745 -745 -890 -895 -890
-918 0 -15 3 -27 7 -27 4 0 404 396 889 881 l881 881 6 -59 6 -58 -894 -895
c-749 -749 -895 -900 -895 -923 0 -15 3 -27 7 -27 4 0 407 399 895 887 l888
888 0 -65 0 -65 -895 -895 c-749 -749 -895 -900 -895 -923 0 -15 3 -27 7 -27
4 0 407 399 895 887 l888 888 0 -65 0 -65 -861 -860 c-473 -473 -865 -868
-870 -877 -8 -15 -5 -18 18 -18 23 0 161 133 870 842 l843 843 0 -65 0 -65
-761 -760 c-418 -418 -765 -768 -770 -777 -8 -15 -5 -18 18 -18 23 0 146 118
770 742 l743 743 0 -65 0 -65 -661 -660 c-363 -363 -665 -668 -670 -677 -8
-15 -5 -18 18 -18 23 0 131 104 670 642 l643 643 0 -65 0 -65 -561 -560 c-308
-308 -565 -568 -570 -578 -8 -14 -5 -17 18 -17 23 0 117 89 570 542 l543 543
0 -65 0 -65 -461 -460 c-253 -253 -465 -468 -470 -477 -8 -15 -5 -18 18 -18
22 0 103 75 474 446 l446 446 21 -44 22 -43 -395 -395 c-217 -218 -395 -399
-395 -403 0 -4 12 -7 27 -7 22 0 96 69 410 382 210 210 384 380 385 377 2 -2
14 -19 27 -38 l23 -33 -336 -337 c-185 -185 -336 -340 -336 -344 0 -4 12 -7
27 -7 22 0 85 58 342 315 l316 314 45 -11 c25 -6 47 -13 49 -15 3 -2 -126
-135 -287 -296 -161 -161 -292 -296 -292 -300 0 -4 12 -7 27 -7 22 0 83 56
328 300 318 317 307 309 385 294 l32 -7 -286 -286 c-157 -158 -286 -290 -286
-294 0 -4 12 -7 27 -7 22 0 83 55 322 293 l296 293 59 -4 59 -4 -282 -282
c-154 -155 -281 -285 -281 -289 0 -4 12 -7 27 -7 22 0 81 55 318 290 l291 290
64 0 65 0 -283 -283 c-155 -156 -282 -286 -282 -290 0 -4 12 -7 27 -7 22 0 81
55 318 290 l291 290 64 0 65 0 -283 -283 c-155 -156 -282 -286 -282 -290 0 -4
12 -7 27 -7 22 0 82 55 322 294 l296 294 70 7 70 7 -292 -294 c-161 -162 -293
-297 -293 -301 0 -4 12 -7 27 -7 22 0 84 57 332 304 306 304 306 304 356 311
28 3 61 8 75 11 17 4 -68 -88 -282 -303 -170 -170 -308 -312 -308 -316 0 -4
12 -7 27 -7 23 0 218 190 1211 1182 651 651 1192 1195 1203 1211 11 15 19 37
17 50 -4 18 -154 -127 -898 -868 -491 -490 -888 -882 -881 -873 8 10 11 26 8
37 -2 10 1 40 7 65 11 44 67 102 889 924 734 734 877 882 877 905 0 15 -3 27
-7 27 -4 0 -398 -390 -875 -867 l-868 -868 0 65 0 65 875 875 c732 732 875
880 875 903 0 15 -3 27 -7 27 -4 0 -398 -390 -875 -867 l-868 -868 0 65 0 65
875 875 c732 732 875 880 875 903 0 15 -3 27 -7 27 -4 0 -398 -390 -875 -867
l-868 -868 0 65 0 65 875 875 c732 732 875 880 875 903 0 15 -3 27 -7 27 -4 0
-398 -390 -875 -867 l-868 -868 0 65 0 65 875 875 c732 732 875 880 875 903 0
15 -3 27 -7 27 -4 0 -398 -390 -875 -867 l-868 -868 0 65 0 65 875 875 c732
732 875 880 875 903 0 15 -3 27 -7 27 -4 0 -398 -390 -875 -867 l-868 -868 0
65 0 65 875 875 c732 732 875 880 875 903 0 15 -3 27 -7 27 -4 0 -398 -390
-875 -867 l-868 -868 0 65 0 65 875 875 c732 732 875 880 875 903 0 15 -3 27
-7 27 -4 0 -398 -390 -875 -867 l-868 -868 0 65 0 65 153 152 c142 142 156
153 207 166 l55 14 3 44 c3 44 6 47 668 709 553 554 664 670 664 693 0 15 -3
27 -7 27 -4 0 -305 -297 -668 -660 l-660 -660 0 53 c1 28 5 61 9 72 5 11 305
317 667 680 548 550 659 665 659 688 0 15 -3 27 -7 27 -4 0 -308 -300 -674
-666 l-667 -667 -36 22 c-20 13 -36 26 -36 29 0 4 320 326 710 717 592 592
710 715 710 738 0 15 -3 27 -7 27 -4 0 -334 -327 -734 -726 l-726 -725 -28 36
-28 37 762 762 c635 636 761 766 761 789 0 15 -3 27 -7 27 -4 0 -354 -347
-778 -770 l-771 -771 -20 23 c-12 13 -25 29 -29 37 -5 9 229 250 799 820 673
674 806 811 806 834 0 15 -3 27 -7 27 -4 0 -375 -367 -824 -816 l-816 -815
-28 36 -28 37 797 797 c438 438 796 800 796 804 0 4 -12 7 -27 7 -23 0 -157
-130 -813 -785 l-786 -786 -27 38 -27 38 740 740 c407 407 740 744 740 748 0
4 -12 7 -27 7 -23 0 -149 -121 -756 -727 l-728 -728 -30 35 -29 35 685 685
c377 377 685 689 685 693 0 4 -12 7 -27 7 -23 0 -140 -113 -701 -672 l-673
-673 -29 35 -29 35 629 630 c347 347 630 634 630 638 0 4 -12 7 -27 7 -23 0
-132 -104 -646 -617 l-618 -618 -31 34 -30 34 576 576 c317 317 576 580 576
584 0 4 -12 7 -27 7 -23 0 -124 -96 -594 -566 l-566 -566 -28 37 -28 36 521
522 c287 288 522 526 522 530 0 4 -12 7 -27 7 -22 0 -116 -88 -541 -512 l-513
-513 -30 35 -29 35 470 470 c258 259 470 474 470 478 0 4 -12 7 -27 7 -22 0
-108 -80 -489 -461 l-461 -461 -28 37 -28 36 416 417 c229 230 417 421 417
425 0 4 -12 7 -27 7 -22 0 -99 -72 -434 -406 l-407 -406 -31 33 -30 34 365
365 c200 201 364 369 364 373 0 4 -12 7 -27 7 -22 0 -91 -64 -379 -351 l-352
-351 -36 28 -36 29 315 315 c173 174 315 319 315 323 0 4 -12 7 -27 7 -22 0
-84 -57 -332 -304z m-883 -1083 c-539 -539 -618 -614 -638 -608 -21 7 -21 8
16 39 97 79 321 286 441 408 180 183 319 341 486 553 78 98 166 205 195 236
l54 58 31 -35 30 -36 -615 -615z m702 512 c0 -6 -27 -37 -60 -70 l-60 -59 -30
29 c-18 17 -30 23 -30 15 0 -8 -23 -57 -52 -109 -48 -89 -70 -114 -298 -344
-135 -137 -307 -305 -382 -374 -76 -70 -138 -131 -138 -137 0 -5 -17 -27 -37
-48 -35 -36 -40 -38 -102 -38 l-66 0 600 600 599 599 28 -26 c15 -15 28 -32
28 -38z m72 -79 l27 -33 -65 -64 -65 -64 -30 35 -29 34 62 63 c34 35 65 63 68
63 3 0 17 -15 32 -34z m93 -106 l29 -30 -64 -65 -64 -65 -33 32 -33 32 62 63
c34 35 65 63 68 63 4 0 19 -14 35 -30z m-245 -42 l29 -33 -377 -377 c-298
-299 -382 -378 -402 -378 l-25 1 21 17 c12 9 30 22 40 28 11 7 16 15 12 19
-11 11 -62 -13 -89 -41 -12 -13 -31 -24 -42 -24 -13 0 115 135 389 409 225
226 410 410 412 410 1 1 16 -14 32 -31z m305 -158 l-65 -65 -32 33 -33 32 65
65 64 65 33 -32 33 -32 -65 -66z m-213 47 l26 -34 -359 -359 c-260 -260 -359
-353 -359 -338 0 15 -10 26 -31 34 l-31 13 359 359 c197 197 360 358 363 358
3 0 17 -15 32 -33z m343 -59 l26 -31 -62 -63 -63 -64 -33 32 -33 32 62 63 c34
35 66 63 69 63 4 0 19 -14 34 -32z m-225 -78 c0 -3 -18 -24 -41 -45 l-41 -40
21 42 c23 47 25 53 12 53 -5 0 -34 -42 -64 -92 -50 -84 -93 -130 -435 -472
l-379 -378 -6 58 -5 59 441 442 441 442 28 -32 c15 -18 27 -34 28 -37z m283
-122 l-57 -58 -33 32 -33 32 61 62 62 63 29 -36 29 -37 -58 -58z m-208 52 c28
-30 29 -31 10 -48 -18 -16 -18 -16 -6 1 14 18 9 33 -7 23 -5 -3 -41 -47 -80
-98 -42 -56 -214 -236 -431 -453 l-361 -360 0 65 0 65 261 260 260 260 -60
-101 c-58 -96 -70 -124 -53 -124 4 0 49 69 101 153 80 128 112 170 210 270 64
64 118 117 121 117 4 0 19 -14 35 -30z m100 -100 l29 -31 -497 -497 -497 -497
0 65 0 65 282 280 c249 248 285 279 231 200 -15 -23 -17 -35 -4 -35 5 0 42 48
82 108 48 71 116 152 203 240 71 72 133 132 136 132 4 0 19 -14 35 -30z m106
-110 l24 -19 -540 -541 -540 -540 -7 57 -8 58 487 485 c267 267 470 465 451
440 -40 -51 -158 -227 -158 -235 0 -22 29 10 91 98 92 130 160 217 169 217 4
0 18 -9 31 -20z m94 -90 l29 -31 -589 -589 -590 -590 -3 62 -3 62 558 558
c307 307 560 558 564 558 3 0 18 -14 34 -30z m6 -254 c-13 -14 -35 -26 -50
-28 -20 -2 -27 -9 -29 -29 -2 -16 -29 -51 -72 -94 l-70 -69 0 65 c0 64 0 65
48 112 40 39 56 48 102 56 95 15 97 15 71 -13z m-246 -183 l-7 -68 -446 -448
-447 -447 -6 57 -6 58 456 458 c251 251 457 457 459 457 2 0 1 -30 -3 -67z
m178 -25 l-6 -66 -78 -78 -79 -79 0 65 0 65 82 82 c45 45 83 81 84 80 1 -1 0
-32 -3 -69z m-432 -492 l-240 -240 30 94 30 95 207 208 207 207 3 -62 3 -62
-240 -240z m422 282 l-6 -66 -73 -73 -74 -73 0 64 0 65 77 77 c42 43 78 76 79
75 1 -1 0 -32 -3 -69z m382 -78 l-110 -110 -3 61 c-3 61 -2 63 39 105 43 43
55 48 149 52 35 2 34 2 -75 -108z m-1546 -147 c-59 -59 -69 -56 -69 17 0 41 5
49 58 103 l57 58 3 -62 3 -62 -52 -54z m666 -332 l-317 -316 39 80 c22 44 45
96 53 115 8 23 101 124 274 298 l261 262 3 -62 3 -62 -316 -315z m421 220
l-76 -76 0 65 0 65 73 73 72 73 3 -63 3 -62 -75 -75z m-338 -338 c-127 -128
-234 -231 -235 -229 -2 2 19 52 47 112 l51 109 182 183 182 182 3 -62 3 -62
-233 -233z m339 139 l-64 -64 -8 57 -7 58 69 69 68 69 3 -63 3 -62 -64 -64z
m-580 83 l-31 -94 -193 -193 -193 -193 0 65 0 65 222 222 c123 123 224 223
225 223 0 0 -13 -43 -30 -95z m-506 -169 l-61 -61 0 65 0 64 58 59 57 58 3
-62 3 -63 -60 -60z m654 -345 l-336 -336 61 125 61 125 272 273 272 272 3 -62
3 -62 -336 -335z m438 237 c-63 -64 -71 -62 -72 17 -1 35 5 46 62 103 l62 63
3 -62 3 -62 -58 -59z m-698 -11 c-67 -148 -83 -172 -194 -282 l-111 -110 0 65
0 65 167 167 c92 93 169 168 170 168 1 0 -13 -33 -32 -73z m91 -134 l-64 -128
-166 -165 -166 -165 0 65 0 66 62 59 c59 58 60 59 38 20 -13 -22 -37 -60 -53
-84 -16 -24 -24 -42 -17 -39 7 2 43 53 81 113 54 86 96 137 206 247 76 76 139
138 140 138 2 0 -26 -57 -61 -127z m612 -50 c-58 -59 -66 -56 -67 22 -1 35 5
46 57 98 l57 58 3 -62 3 -62 -53 -54z m-234 28 c-60 -117 -76 -138 -164 -226
-79 -78 -97 -92 -93 -71 9 47 -15 27 -60 -51 -52 -90 -213 -259 -181 -191 20
42 11 64 -13 33 -8 -11 -28 -47 -45 -80 -27 -55 -160 -205 -181 -205 -4 0 20
53 54 118 l62 117 341 343 c187 188 342 342 344 342 2 0 -27 -58 -64 -129z
m146 -51 c0 -27 -4 -50 -9 -50 -5 0 -11 -10 -15 -22 -3 -13 -139 -156 -302
-318 l-296 -295 62 125 62 125 241 243 c133 133 245 242 249 242 5 0 8 -22 8
-50z m-221 -486 l-231 -231 -67 -6 c-36 -3 -67 -4 -68 -3 -1 1 113 116 253
256 197 197 254 248 248 226 -10 -42 12 -24 26 22 7 20 24 50 39 65 l26 28 3
-62 3 -63 -232 -232z m-446 259 c-55 -132 -104 -211 -177 -283 l-76 -74 0 64
0 65 132 132 c73 73 134 133 135 133 1 0 -5 -17 -14 -37z m555 -350 l-133
-133 -65 0 -65 0 195 195 195 195 3 -62 3 -62 -133 -133z m141 -24 c2 -57 -38
-88 -125 -95 l-69 -6 90 91 c98 100 101 100 104 10z m59 -176 l-52 -53 -65 0
-65 0 59 60 c41 42 61 56 63 45 7 -30 32 -16 32 17 0 24 10 42 38 71 l37 38 3
-62 3 -62 -53 -54z m-194 6 c-61 -61 -61 -61 -130 -66 l-69 -5 57 57 c53 55
59 58 120 65 34 4 67 8 73 9 5 0 -18 -26 -51 -60z"/>
<path d="M3996 1150 c-614 -613 -1122 -1123 -1127 -1132 -8 -15 -5 -18 18 -18
23 0 196 168 1111 1082 596 596 1092 1095 1103 1111 11 15 19 37 17 50 -4 18
-193 -166 -1122 -1093z"/>
<path d="M4096 1050 c-559 -558 -1022 -1023 -1027 -1033 -8 -14 -5 -17 18 -17
23 0 181 153 1011 983 541 540 992 994 1003 1010 11 15 19 37 17 50 -4 18
-175 -149 -1022 -993z"/>
<path d="M4196 950 c-504 -503 -922 -923 -927 -932 -8 -15 -5 -18 18 -18 23 0
167 139 911 882 486 486 892 895 903 911 11 15 19 37 17 50 -4 18 -158 -132
-922 -893z"/>
<path d="M4296 850 c-449 -448 -822 -823 -827 -832 -8 -15 -5 -18 18 -18 23 0
152 124 811 783 431 430 792 794 803 810 11 15 19 37 17 50 -4 18 -141 -114
-822 -793z"/>
<path d="M4396 750 c-394 -393 -722 -723 -727 -732 -8 -15 -5 -18 18 -18 23 0
137 110 711 683 376 375 692 694 703 710 11 15 19 37 17 50 -4 18 -124 -97
-722 -693z"/>
<path d="M4496 650 c-339 -338 -622 -623 -627 -632 -8 -15 -5 -18 18 -18 23 0
123 95 611 583 321 320 592 594 603 610 11 15 19 37 17 50 -4 18 -106 -80
-622 -593z"/>
<path d="M4596 550 c-284 -283 -522 -523 -527 -533 -8 -14 -5 -17 18 -17 23 0
108 81 511 483 266 265 492 494 503 510 11 15 19 37 17 50 -4 18 -89 -62 -522
-493z"/>
<path d="M4696 450 c-229 -228 -422 -423 -427 -432 -8 -15 -5 -18 18 -18 22 0
93 66 411 383 211 210 392 394 403 410 11 15 19 37 17 50 -4 18 -72 -45 -422
-393z"/>
<path d="M4796 350 c-174 -173 -322 -323 -327 -332 -8 -15 -5 -18 17 -18 23 0
80 52 312 282 156 156 293 295 303 311 11 15 19 37 17 50 -4 18 -54 -28 -322
-293z"/>
<path d="M4896 250 c-119 -118 -222 -223 -227 -232 -8 -15 -5 -18 17 -18 21 0
65 37 211 183 205 202 226 227 221 260 -3 19 -37 -11 -222 -193z"/>
<path d="M4996 150 c-136 -133 -149 -150 -111 -150 18 0 49 23 111 82 102 98
127 130 122 161 -3 19 -19 7 -122 -93z"/>
</g>
</svg>
